<?xml version="1.0" encoding="UTF-8"?>
<svg version="1.1" xmlns="http://www.w3.org/2000/svg" width="350" height="190">
<path d="M0 0 C1.4837915 0.26538574 1.4837915 0.26538574 2.99755859 0.53613281 C43.59810182 7.92268883 87.94505749 22.9541248 114 57 C123.96875393 71.51303191 127.83559759 87.69827524 124.60449219 105.13427734 C119.00286412 127.43414538 99.57763682 144.67534374 80.6875 156.2734375 C60.15511559 168.43213483 37.56175486 176.0610152 14.375 181.375 C13.40159668 181.60155273 12.42819336 181.82810547 11.42529297 182.06152344 C-7.74104503 186.17367532 -27.16858359 187.50507734 -46.72949219 187.39111328 C-49.99977276 187.37500112 -53.26881822 187.39110344 -56.5390625 187.41015625 C-75.98248654 187.43031655 -95.40194753 185.7908437 -114.375 181.375 C-115.47602051 181.12266602 -116.57704102 180.87033203 -117.71142578 180.61035156 C-153.54707922 172.06668479 -193.97821139 156.6597618 -215.3671875 124.67578125 C-221.85906817 114.03717298 -225.39535487 104.576903 -225.3125 92.125 C-225.30686035 91.23876953 -225.3012207 90.35253906 -225.29541016 89.43945312 C-225.1787413 83.16936856 -224.61060788 77.7650924 -222 72 C-221.39671875 70.57880859 -221.39671875 70.57880859 -220.78125 69.12890625 C-217.25759475 61.44538022 -212.64806653 55.25254187 -207 49 C-205.96746094 47.84371094 -205.96746094 47.84371094 -204.9140625 46.6640625 C-178.44251091 18.61799483 -136.72197239 6.47498354 -100 0 C-99.11441406 -0.16516113 -98.22882813 -0.33032227 -97.31640625 -0.50048828 C-66.45851729 -6.04275771 -30.79807033 -5.76592517 0 0 Z " fill="#FDFBFB" transform="translate(225,3)"/>
<path d="M0 0 C1.78711015 1.51598874 3.06411476 2.83253673 4.328125 4.80078125 C4.90046875 5.67476562 4.90046875 5.67476562 5.484375 6.56640625 C6.65948335 9.67826726 6.4547778 12.50780848 6.328125 15.80078125 C13.45090613 16.40931017 19.55110356 16.61650086 25.265625 11.9453125 C28.28206272 9.18931766 31.06139156 6.2259974 33.85717773 3.24951172 C36.83771466 0.31399203 39.38764431 -1.08857396 43.515625 -1.57421875 C44.44375 -1.45046875 45.371875 -1.32671875 46.328125 -1.19921875 C48.74942831 2.43273621 48.53835285 4.18427473 48.453125 8.48828125 C48.43507813 9.66777344 48.41703125 10.84726562 48.3984375 12.0625 C48.37523437 12.96613281 48.35203125 13.86976562 48.328125 14.80078125 C49.71541054 14.79745033 49.71541054 14.79745033 51.13072205 14.79405212 C59.82765087 14.77405212 68.52457202 14.75880861 77.22151852 14.74896908 C81.69318049 14.74374051 86.16482353 14.73664336 90.63647461 14.7253418 C94.94824473 14.71451196 99.25999659 14.70850421 103.57177925 14.70590401 C105.22048798 14.70404993 106.86919566 14.70042965 108.51789665 14.69505119 C110.81916372 14.68783947 113.1203544 14.68679036 115.42163086 14.68725586 C117.39020302 14.68392494 117.39020302 14.68392494 119.39854431 14.68052673 C122.328125 14.80078125 122.328125 14.80078125 123.328125 15.80078125 C123.80286582 19.21891518 123.48675368 20.55717292 121.578125 23.48828125 C118.26899855 26.88932788 115.58980921 28.02014339 110.88037109 28.21142578 C110.00279144 28.25130615 109.12521179 28.29118652 108.22103882 28.33227539 C107.27411163 28.36571045 106.32718445 28.39914551 105.3515625 28.43359375 C104.36072662 28.47524658 103.36989075 28.51689941 102.34902954 28.55981445 C99.13403259 28.69162164 95.91871121 28.80930998 92.703125 28.92578125 C90.5117113 29.01136554 88.32030504 29.09714034 86.12890625 29.18310547 C71.19093603 29.74980453 56.27702257 30.09275191 41.328125 29.80078125 C41.06386719 30.54585937 40.79960937 31.2909375 40.52734375 32.05859375 C37.17773053 39.71796991 29.10696728 47.06715066 22.390625 51.92578125 C20.05768357 53.64489453 20.05768357 53.64489453 19.953125 56.48828125 C20.08976334 58.75735344 20.08976334 58.75735344 21.328125 59.80078125 C26.19642211 60.35297735 26.19642211 60.35297735 30.3515625 58.17578125 C32.63015161 55.43787181 34.06788522 52.68255703 35.640625 49.48828125 C38.55744072 43.94073407 41.40605974 39.68954612 46.328125 35.80078125 C46.84761719 35.37023437 47.36710937 34.9396875 47.90234375 34.49609375 C53.23417905 30.75219003 59.0695436 31.47138223 65.328125 31.80078125 C66.318125 31.80078125 67.308125 31.80078125 68.328125 31.80078125 C73.328125 31.80078125 78.328125 31.80078125 83.328125 31.80078125 C82.28816898 37.66123927 80.99488757 43.20976485 78.9140625 48.79296875 C78.14136271 51.0921596 78.14136271 51.0921596 78.328125 54.80078125 C79.32779297 53.98287109 79.32779297 53.98287109 80.34765625 53.1484375 C82.28926279 51.55985033 84.23205876 49.97271625 86.17578125 48.38671875 C88.21672112 46.71794657 90.24173596 45.03436993 92.26171875 43.33984375 C104.5515398 33.07843977 104.5515398 33.07843977 111.078125 32.42578125 C114.328125 32.80078125 114.328125 32.80078125 117.328125 34.80078125 C117.328125 35.46078125 117.328125 36.12078125 117.328125 36.80078125 C117.87339844 36.43984375 118.41867188 36.07890625 118.98046875 35.70703125 C124.47679484 32.32467673 128.85942273 30.54095908 135.328125 31.80078125 C138.890625 33.23828125 138.890625 33.23828125 141.328125 35.80078125 C142.59692378 41.18260275 141.17318852 45.80006661 139.0625 50.73828125 C137.78824207 54.3170482 137.58116665 58.03133325 137.328125 61.80078125 C139.638125 60.81078125 141.948125 59.82078125 144.328125 58.80078125 C144.34230469 58.12273437 144.35648438 57.4446875 144.37109375 56.74609375 C144.93051979 45.8297262 149.21727144 37.20397645 157.328125 29.80078125 C161.10603597 27.55465485 163.9252203 27.2693962 168.328125 27.80078125 C171.30051741 29.58554366 173.75416527 31.6528618 175.328125 34.80078125 C175.99748823 40.1886066 175.66189931 44.5833504 172.6640625 49.17578125 C169.45082717 53.08427802 165.38422044 55.99185708 161.390625 59.05078125 C160.71 59.62828125 160.029375 60.20578125 159.328125 60.80078125 C159.328125 61.46078125 159.328125 62.12078125 159.328125 62.80078125 C167.0203545 62.62075035 172.80357816 60.89263623 179.328125 56.80078125 C179.97523438 56.40246094 180.62234375 56.00414062 181.2890625 55.59375 C183.23483621 54.08189296 184.24851048 53.02966285 185.328125 50.80078125 C185.56707475 47.45548474 185.44933581 44.22349943 185.28515625 40.875 C185.34604192 36.51890678 186.37892824 34.91850353 189.328125 31.80078125 C193.12940877 29.26659207 194.82508532 29.11387689 199.328125 29.80078125 C202.85284494 32.47125684 204.9869246 35.37394322 206.015625 39.67578125 C205.30843925 42.89026194 204.31162 44.41461168 202.515625 47.11328125 C201.04158423 49.37794202 201.04158423 49.37794202 200.328125 51.80078125 C201.2282447 54.28511161 202.54250692 56.1529077 204.0234375 58.3359375 C206.44655142 62.91373655 206.11766959 67.78571099 205.328125 72.80078125 C203.55044193 76.09278694 202.25500961 77.26009856 199.078125 79.11328125 C193.5618297 80.49235507 189.88365094 80.66496233 184.953125 77.92578125 C182.328125 75.80078125 182.328125 75.80078125 180.328125 73.80078125 C179.73064453 74.63222656 179.73064453 74.63222656 179.12109375 75.48046875 C178.59128906 76.20492187 178.06148437 76.929375 177.515625 77.67578125 C176.73251953 78.75472656 176.73251953 78.75472656 175.93359375 79.85546875 C174.0420268 82.14744039 172.34537259 83.59431303 169.3803587 84.19611454 C168.64484689 84.26328898 167.90933508 84.33046343 167.15153503 84.39967346 C166.31809476 84.47857032 165.48465448 84.55746717 164.62595844 84.63875484 C163.72740729 84.71357366 162.82885614 84.78839247 161.90307617 84.86547852 C160.96528163 84.94861329 160.02748709 85.03174807 159.06127453 85.11740208 C149.42779598 85.93784192 139.78803589 86.38655316 130.12890625 86.765625 C128.25312867 86.84375167 126.3773764 86.92248801 124.50164795 87.00178528 C120.56762275 87.16737886 116.6334966 87.33012759 112.69924927 87.49035645 C102.5072151 87.90606495 92.31602388 88.34154493 82.125 88.78125 C81.12619875 88.82423847 80.1273975 88.86722694 79.09832954 88.9115181 C60.56555341 89.71262647 42.05209659 90.70892176 23.54223633 91.93725586 C14.7896764 92.513817 6.10707191 93.00174913 -2.671875 92.80078125 C2.078125 83.05078125 2.078125 83.05078125 4.328125 80.80078125 C6.543396 80.40600586 6.543396 80.40600586 9.38964844 80.203125 C10.48641907 80.12441162 11.5831897 80.04569824 12.7131958 79.96459961 C13.94221619 79.88991455 15.17123657 79.81522949 16.4375 79.73828125 C17.74853699 79.65521729 19.05957397 79.57215332 20.41033936 79.48657227 C41.10349494 78.25351 61.85597863 78.13764975 82.578125 77.80078125 C115.69908533 77.32811311 115.69908533 77.32811311 148.79546356 76.04269409 C150.24278697 75.96593841 151.69032771 75.89315683 153.13806915 75.82473755 C155.09897673 75.72946583 157.05883636 75.61330844 159.01855469 75.49609375 C160.10126648 75.43437988 161.18397827 75.37266602 162.29949951 75.30908203 C165.80091861 74.72143127 168.29226839 73.62857878 171.328125 71.80078125 C172.318125 70.31578125 172.318125 70.31578125 173.328125 68.80078125 C172.71066406 69.01734375 172.09320313 69.23390625 171.45703125 69.45703125 C158.29025754 73.78583357 158.29025754 73.78583357 152.38671875 70.828125 C151.78988281 70.44785156 151.19304687 70.06757812 150.578125 69.67578125 C147.58967742 67.46981038 147.58967742 67.46981038 144.953125 68.30078125 C143.65375 69.04328125 143.65375 69.04328125 142.328125 69.80078125 C135.71354788 73.37695506 129.88924639 74.99529065 122.328125 73.80078125 C119.640625 72.23828125 119.640625 72.23828125 118.328125 69.80078125 C117.618151 64.62811352 118.8689154 60.59091038 120.671875 55.81640625 C121.48291802 53.67863988 121.48291802 53.67863988 121.328125 50.80078125 C119.348125 50.80078125 117.368125 50.80078125 115.328125 50.80078125 C114.78542969 51.88617188 114.24273437 52.9715625 113.68359375 54.08984375 C110.56510417 60.32682292 107.44661458 66.56380208 104.328125 72.80078125 C99.048125 72.80078125 93.768125 72.80078125 88.328125 72.80078125 C90.78577535 64.88168569 93.99631073 57.38092829 97.328125 49.80078125 C92.29488965 52.88219709 88.37051079 56.51776487 84.265625 60.73828125 C83.66685547 61.34607422 83.06808594 61.95386719 82.45117188 62.58007812 C80.24467874 64.82040576 78.04267972 67.06495299 75.85205078 69.32080078 C72.53612985 72.70233539 71.3059321 73.73769692 66.453125 74.05078125 C63.56721771 74.01929862 62.42409111 73.85356261 59.828125 72.42578125 C58.328125 70.80078125 58.328125 70.80078125 58.328125 68.80078125 C57.54501953 69.45046875 57.54501953 69.45046875 56.74609375 70.11328125 C51.45247069 74.11826402 47.46933846 75.69020958 40.79296875 75.34375 C36.97344257 74.50236468 35.58969414 72.92018696 33.328125 69.80078125 C30.82405876 70.79169516 28.33359468 71.79840614 25.86328125 72.87109375 C16.83401338 76.72244024 16.83401338 76.72244024 12.328125 75.80078125 C8.72763374 73.30813345 5.74344793 71.04675004 4.328125 66.80078125 C4.328125 65.81078125 4.328125 64.82078125 4.328125 63.80078125 C3.379375 64.46078125 2.430625 65.12078125 1.453125 65.80078125 C-1.671875 67.80078125 -1.671875 67.80078125 -3.671875 67.80078125 C-4.043125 68.88359375 -4.043125 68.88359375 -4.421875 69.98828125 C-8.92146329 80.11235491 -19.20082731 84.94820024 -29.0078125 88.85546875 C-37.86471223 91.99823962 -47.73074408 92.21975214 -56.37890625 88.26953125 C-62.05702455 84.63244014 -66.71147517 79.29950668 -68.671875 72.80078125 C-68.796875 69.48828125 -68.796875 69.48828125 -68.671875 66.80078125 C-66.29922439 66.12460601 -63.92432145 65.45969899 -61.546875 64.80078125 C-60.88171875 64.61 -60.2165625 64.41921875 -59.53125 64.22265625 C-55.4732545 63.1086967 -51.87501526 62.59127893 -47.671875 62.80078125 C-47.64609375 63.39246094 -47.6203125 63.98414062 -47.59375 64.59375 C-47.311017 68.53273481 -46.91879812 71.33542615 -45.046875 74.86328125 C-42.74611564 77.05298603 -42.74611564 77.05298603 -39.421875 77.42578125 C-34.49888864 76.60528352 -30.23952913 74.36843538 -26.671875 70.80078125 C-26.23909208 67.89825288 -26.23909208 67.89825288 -26.671875 64.80078125 C-28.38097245 62.87143875 -28.38097245 62.87143875 -30.859375 61.48828125 C-31.76558594 60.90691406 -32.67179687 60.32554688 -33.60546875 59.7265625 C-34.61738281 59.09105469 -35.62929687 58.45554688 -36.671875 57.80078125 C-38.93779743 56.28191035 -41.179696 54.72940434 -43.421875 53.17578125 C-44.46859375 52.46164063 -45.5153125 51.7475 -46.59375 51.01171875 C-56.527475 43.87658125 -56.527475 43.87658125 -58.671875 37.80078125 C-59.62378185 31.34896818 -58.19657634 28.14261216 -54.35546875 22.953125 C-53.52208984 21.88771484 -53.52208984 21.88771484 -52.671875 20.80078125 C-52.25035156 20.20394531 -51.82882813 19.60710938 -51.39453125 18.9921875 C-41.01049144 5.32565486 -17.01295804 -7.63593292 0 0 Z " fill="#E21E23" transform="translate(106.671875,40.19921875)"/>
<path d="M0 0 C1.4837915 0.26538574 1.4837915 0.26538574 2.99755859 0.53613281 C43.59810182 7.92268883 87.94505749 22.9541248 114 57 C123.96875393 71.51303191 127.83559759 87.69827524 124.60449219 105.13427734 C119.00286412 127.43414538 99.57763682 144.67534374 80.6875 156.2734375 C60.15511559 168.43213483 37.56175486 176.0610152 14.375 181.375 C13.40159668 181.60155273 12.42819336 181.82810547 11.42529297 182.06152344 C-7.74104503 186.17367532 -27.16858359 187.50507734 -46.72949219 187.39111328 C-49.99977276 187.37500112 -53.26881822 187.39110344 -56.5390625 187.41015625 C-75.98248654 187.43031655 -95.40194753 185.7908437 -114.375 181.375 C-115.47602051 181.12266602 -116.57704102 180.87033203 -117.71142578 180.61035156 C-153.54707922 172.06668479 -193.97821139 156.6597618 -215.3671875 124.67578125 C-221.85906817 114.03717298 -225.39535487 104.576903 -225.3125 92.125 C-225.30686035 91.23876953 -225.3012207 90.35253906 -225.29541016 89.43945312 C-225.1787413 83.16936856 -224.61060788 77.7650924 -222 72 C-221.39671875 70.57880859 -221.39671875 70.57880859 -220.78125 69.12890625 C-217.25759475 61.44538022 -212.64806653 55.25254187 -207 49 C-205.96746094 47.84371094 -205.96746094 47.84371094 -204.9140625 46.6640625 C-178.44251091 18.61799483 -136.72197239 6.47498354 -100 0 C-99.11441406 -0.16516113 -98.22882813 -0.33032227 -97.31640625 -0.50048828 C-66.45851729 -6.04275771 -30.79807033 -5.76592517 0 0 Z M-205 60 C-213.95593893 69.67241404 -219.43170979 81.16789936 -219.2109375 94.48046875 C-217.99771712 108.97171223 -209.51319538 120.49048671 -199 130 C-189.21221078 138.15100979 -178.56166761 144.21754949 -166.87939453 149.19775391 C-165.22128785 149.90554016 -163.576281 150.64384745 -161.93359375 151.38671875 C-137.25818982 162.26586068 -110.60099151 166.8861513 -84 170 C-83.12110107 170.10747559 -82.24220215 170.21495117 -81.33666992 170.32568359 C-72.43606224 171.28804956 -63.50302942 171.15585189 -54.5625 171.125 C-53.28953064 171.12167664 -53.28953064 171.12167664 -51.99084473 171.11828613 C-6.90745147 170.98003918 38.92862848 165.08478999 79 143 C80.60875 142.13955078 80.60875 142.13955078 82.25 141.26171875 C98.38429893 132.30965238 111.12742096 120.26326401 118 103 C120.66618177 90.76051057 118.98783844 80.03622676 112.3125 69.4375 C97.09122558 48.22567451 75.40359981 37.46601072 51.42431641 28.87109375 C49.33163767 28.11916246 47.24926779 27.34515341 45.16796875 26.5625 C-27.30421741 0.53432989 -147.48169 2.04428841 -205 60 Z " fill="#E21D23" transform="translate(225,3)"/>
<path d="M0 0 C2 2 2 2 2.25 5.0625 C2 9 2 9 0 18 C10.23 18 20.46 18 31 18 C27.625 26.125 27.625 26.125 26.57275391 28.64892578 C26.29351074 29.3242334 26.01426758 29.99954102 25.7265625 30.6953125 C25.42266602 31.42782227 25.11876953 32.16033203 24.80566406 32.91503906 C23.88249031 35.20496517 23.88249031 35.20496517 23.0234375 38.4921875 C22.68570313 39.31976563 22.34796875 40.14734375 22 41 C19.875 41.875 19.875 41.875 18 42 C17.66871094 41.46632812 17.33742187 40.93265625 16.99609375 40.3828125 C11.8957824 32.99439154 5.39232485 28.87347518 -2.08105469 24.20214844 C-5.01845279 22.3619769 -7.91664248 20.46748579 -10.8125 18.5625 C-11.76769531 17.94503906 -12.72289063 17.32757813 -13.70703125 16.69140625 C-16 15 -16 15 -18 12 C-18 9.625 -18 9.625 -17 7 C-11.40144497 1.65026964 -7.8005355 -0.57781744 0 0 Z " fill="#FDF9F9" transform="translate(88,54)"/>
<path d="M0 0 C0.49593185 5.95118223 -0.6726059 10.00890885 -4 15 C-6.25 17 -6.25 17 -8 18 C-9.32 17.34 -10.64 16.68 -12 16 C-12.61857991 11.05136071 -12.13512566 8.67259616 -9.125 4.625 C-6.09229474 0.83045574 -5.07270755 0 0 0 Z " fill="#FCEFEF" transform="translate(169,84)"/>
<path d="M0 0 C1.32 0.66 2.64 1.32 4 2 C4.04254356 3.99954746 4.04080783 6.00041636 4 8 C3 9 3 9 0.125 9.3125 C-3 9 -3 9 -4.875 7 C-5.24625 6.34 -5.6175 5.68 -6 5 C-4.02 3.35 -2.04 1.7 0 0 Z " fill="#FDF2F2" transform="translate(295,102)"/>
<path d="M0 0 C0.39141851 3.42491198 0.13357065 4.79010327 -1.75 7.75 C-4.06501562 10.06501562 -4.92891893 10.40642971 -8 11 C-6.41945289 3.58358663 -6.41945289 3.58358663 -4.5625 1 C-3 0 -3 0 0 0 Z " fill="#FDF3F3" transform="translate(272,80)"/>
<path d="M0 0 C0.66 0 1.32 0 2 0 C2 0.99 2 1.98 2 3 C11.57 3.33 21.14 3.66 31 4 C31 4.33 31 4.66 31 5 C20.77 5 10.54 5 0 5 C0 3.35 0 1.7 0 0 Z " fill="#E74448" transform="translate(88,67)"/>
<path d="M0 0 C1.98 0 3.96 0 6 0 C4.64978174 4.41889613 2.73884332 6.34345343 -1 9 C-1.66 8.67 -2.32 8.34 -3 8 C-2.01 5.36 -1.02 2.72 0 0 Z " fill="#FCECEC" transform="translate(131,71)"/>
<path d="M0 0 C0.99 0 1.98 0 3 0 C3 1.65 3 3.3 3 5 C1.02 5.99 1.02 5.99 -1 7 C-1.04254356 5.00045254 -1.04080783 2.99958364 -1 1 C-0.67 0.67 -0.34 0.34 0 0 Z " fill="#FDEFF0" transform="translate(303,79)"/>
<path d="M0 0 C0.33 0.99 0.66 1.98 1 3 C-1.31 4.98 -3.62 6.96 -6 9 C-6 6 -6 6 -4.6875 4.39453125 C-4.130625 3.87246094 -3.57375 3.35039063 -3 2.8125 C-2.443125 2.28269531 -1.88625 1.75289063 -1.3125 1.20703125 C-0.6628125 0.60955078 -0.6628125 0.60955078 0 0 Z " fill="#E11519" transform="translate(153,76)"/>
</svg>

